<svg width="24" height="24" viewBox="0 0 24 24" fill="none" xmlns="http://www.w3.org/2000/svg">
<path fill-rule="evenodd" clip-rule="evenodd" d="M18.7161 6.65435C19.0946 6.2759 19.0946 5.6623 18.7161 5.28384C18.3377 4.90539 17.7241 4.90539 17.3457 5.28384L11.5 11.1295L5.65437 5.28384C5.2759 4.90539 4.6623 4.90539 4.28384 5.28384C3.90539 5.6623 3.90539 6.2759 4.28384 6.65435L10.1295 12.5L4.28384 18.3456C3.90539 18.7242 3.90539 19.3377 4.28384 19.7162C4.6623 20.0946 5.2759 20.0946 5.65437 19.7162L11.5 13.8705L17.3457 19.7162C17.7241 20.0946 18.3377 20.0946 18.7161 19.7162C19.0946 19.3377 19.0946 18.7242 18.7161 18.3456L12.8705 12.5L18.7161 6.65435Z" fill="#72777A"/>
</svg>
