<svg width="18" height="22" viewBox="0 0 18 22" fill="none" xmlns="http://www.w3.org/2000/svg">
<path d="M13.8889 22H4.11111C3.4628 22 2.84105 21.7425 2.38263 21.284C1.9242 20.8256 1.66666 20.2039 1.66666 19.5556V8.55556C1.66666 8.2314 1.79543 7.92053 2.02465 7.69131C2.25386 7.4621 2.56473 7.33333 2.88889 7.33333H15.1111C15.4353 7.33333 15.7461 7.4621 15.9754 7.69131C16.2046 7.92053 16.3333 8.2314 16.3333 8.55556V19.5556C16.3333 20.2039 16.0758 20.8256 15.6174 21.284C15.1589 21.7425 14.5372 22 13.8889 22ZM17.5556 3.66667C17.5556 3.99082 17.4268 4.3017 17.1976 4.53091C16.9684 4.76012 16.6575 4.88889 16.3333 4.88889H1.66666C1.34251 4.88889 1.03163 4.76012 0.802423 4.53091C0.573212 4.3017 0.444443 3.99082 0.444443 3.66667C0.444443 3.34251 0.573212 3.03164 0.802423 2.80242C1.03163 2.57321 1.34251 2.44444 1.66666 2.44444H5.33333V1.22222C5.33333 0.898069 5.4621 0.587192 5.69131 0.357981C5.92052 0.128769 6.2314 0 6.55555 0L11.4444 0C11.7686 0 12.0795 0.128769 12.3087 0.357981C12.5379 0.587192 12.6667 0.898069 12.6667 1.22222V2.44444H16.3333C16.6575 2.44444 16.9684 2.57321 17.1976 2.80242C17.4268 3.03164 17.5556 3.34251 17.5556 3.66667Z" fill="#1F6CBC"/>
</svg>
