<svg width="24" height="24" viewBox="0 0 24 24" fill="none" xmlns="http://www.w3.org/2000/svg">
<path fill-rule="evenodd" clip-rule="evenodd" d="M11.7942 4.05287C11.905 4.10181 11.9992 4.1819 12.0653 4.28339C12.1315 4.38488 12.1667 4.5034 12.1667 4.62454V18.3746C12.1668 18.4957 12.1316 18.6143 12.0656 18.7159C11.9995 18.8174 11.9053 18.8976 11.7945 18.9466C11.6837 18.9956 11.561 19.0113 11.4414 18.9919C11.3218 18.9725 11.2104 18.9187 11.1209 18.8371L6.71668 14.8329H4.45834C4.07156 14.8329 3.70063 14.6793 3.42714 14.4058C3.15365 14.1323 3 13.7613 3 13.3746V9.62456C3 8.81955 3.65334 8.16622 4.45834 8.16622H6.71668L11.1209 4.16204C11.2105 4.0807 11.3219 4.02717 11.4414 4.00794C11.561 3.9887 11.6835 4.0046 11.7942 4.0537V4.05287ZM10.9167 6.03704L7.37918 9.25372C7.26403 9.35839 7.11396 9.41633 6.95835 9.41622H4.45834C4.40308 9.41622 4.35009 9.43817 4.31102 9.47724C4.27195 9.51631 4.25 9.5693 4.25 9.62456V13.3746C4.25 13.4896 4.34334 13.5829 4.45834 13.5829H6.95835C7.11396 13.5828 7.26403 13.6407 7.37918 13.7454L10.9167 16.9621V6.03704Z" fill="#F9002D"/>
<path d="M22.5854 8.22952C22.6581 8.30209 22.7158 8.3883 22.7552 8.48322C22.7946 8.57813 22.8149 8.67988 22.8149 8.78265C22.8149 8.88541 22.7946 8.98716 22.7552 9.08207C22.7158 9.17699 22.6581 9.2632 22.5854 9.33577L20.0119 11.9076L22.5854 14.4795C22.7321 14.6262 22.8145 14.8252 22.8145 15.0326C22.8145 15.2401 22.7321 15.4391 22.5854 15.5858C22.4387 15.7325 22.2397 15.8149 22.0322 15.8149C21.8248 15.8149 21.6258 15.7325 21.4791 15.5858L18.9072 13.0123L16.3354 15.5858C16.1887 15.7325 15.9897 15.8149 15.7822 15.8149C15.5748 15.8149 15.3758 15.7325 15.2291 15.5858C15.0824 15.4391 15 15.2401 15 15.0326C15 14.8252 15.0824 14.6262 15.2291 14.4795L17.8025 11.9076L15.2291 9.33577C15.1565 9.26313 15.0989 9.1769 15.0595 9.082C15.0202 8.98709 15 8.88537 15 8.78265C15 8.67992 15.0202 8.5782 15.0595 8.4833C15.0989 8.38839 15.1565 8.30216 15.2291 8.22952C15.3758 8.08282 15.5748 8.00041 15.7822 8.00041C15.885 8.00041 15.9867 8.02064 16.0816 8.05995C16.1765 8.09926 16.2627 8.15688 16.3354 8.22952L18.9072 10.803L21.4791 8.22952C21.5517 8.15677 21.6379 8.09904 21.7328 8.05966C21.8277 8.02027 21.9295 8 22.0322 8C22.135 8 22.2367 8.02027 22.3317 8.05966C22.4266 8.09904 22.5128 8.15677 22.5854 8.22952Z" fill="#F9002D"/>
</svg>
