<svg width="44" height="44" viewBox="0 0 44 44" fill="none" xmlns="http://www.w3.org/2000/svg">
<path fill-rule="evenodd" clip-rule="evenodd" d="M22 44C27.8348 44 33.4306 41.6822 37.5564 37.5564C41.6822 33.4306 44 27.8348 44 22C44 16.1652 41.6822 10.5695 37.5564 6.44365C33.4306 2.31785 27.8348 0 22 0C16.1652 0 10.5695 2.31785 6.44365 6.44365C2.31785 10.5695 0 16.1652 0 22C0 27.8348 2.31785 33.4306 6.44365 37.5564C10.5695 41.6822 16.1652 44 22 44V44ZM30.3353 11C27.1408 11.0002 24.0772 12.2693 21.8185 14.5282L21.186 15.158C20.757 15.5898 20.339 16.038 19.943 16.5055H15.5375C15.1261 16.5056 14.7215 16.611 14.3624 16.8117C14.0033 17.0125 13.7016 17.3018 13.486 17.6523L11.132 21.4693C11.049 21.6036 10.9979 21.7552 10.9827 21.9124C10.9675 22.0696 10.9886 22.2281 11.0444 22.3759C11.1002 22.5236 11.1892 22.6566 11.3045 22.7645C11.4198 22.8724 11.5584 22.9524 11.7095 22.9982L15.9775 24.31L19.69 28.0225L21.0045 32.2933C21.0505 32.444 21.1304 32.5821 21.2381 32.6971C21.3459 32.8121 21.4785 32.9009 21.6259 32.9567C21.7732 33.0124 21.9314 33.0337 22.0883 33.0188C22.2451 33.0039 22.3965 32.9532 22.5307 32.8708L26.3505 30.5195C26.7004 30.3036 26.9892 30.0017 27.1895 29.6426C27.3897 29.2835 27.4947 28.8792 27.4945 28.468V24.0542C27.962 23.6582 28.4102 23.243 28.842 22.8113L29.4745 22.1787C31.7317 19.9202 32.9998 16.8579 33 13.6647V13.409C33 12.7701 32.7462 12.1574 32.2944 11.7056C31.8426 11.2538 31.2299 11 30.591 11H30.3353ZM16.291 30.646C16.169 30.9194 15.9932 31.1654 15.774 31.3692C14.6905 32.4527 12.3145 32.9175 11.319 33.0715C11.2653 33.0806 11.2102 33.0767 11.1584 33.0602C11.1065 33.0437 11.0593 33.0149 11.0208 32.9764C10.9823 32.9379 10.9536 32.8908 10.9371 32.8389C10.9205 32.787 10.9166 32.7319 10.9258 32.6783C11.0798 31.6828 11.5445 29.3067 12.6307 28.2232C12.9887 27.8353 13.4731 27.5874 13.9972 27.5241C14.5213 27.4607 15.0508 27.586 15.4909 27.8776C15.931 28.1691 16.253 28.6078 16.3991 29.115C16.5452 29.6223 16.5059 30.165 16.2882 30.646H16.291Z" fill="#1F6CBC"/>
</svg>
