<svg width="44" height="44" viewBox="0 0 44 44" fill="none" xmlns="http://www.w3.org/2000/svg">
<path fill-rule="evenodd" clip-rule="evenodd" d="M21.7942 14.0529C21.905 14.1018 21.9992 14.1819 22.0653 14.2834C22.1315 14.3849 22.1667 14.5034 22.1667 14.6245V28.3746C22.1668 28.4957 22.1316 28.6143 22.0656 28.7159C21.9995 28.8174 21.9053 28.8976 21.7945 28.9466C21.6837 28.9956 21.561 29.0113 21.4414 28.9919C21.3218 28.9725 21.2104 28.9187 21.1209 28.8371L16.7167 24.8329H14.4583C14.0716 24.8329 13.7006 24.6793 13.4271 24.4058C13.1536 24.1323 13 23.7613 13 23.3746V19.6246C13 18.8196 13.6533 18.1662 14.4583 18.1662H16.7167L21.1209 14.162C21.2105 14.0807 21.3219 14.0272 21.4414 14.0079C21.561 13.9887 21.6835 14.0046 21.7942 14.0537V14.0529ZM20.9167 16.037L17.3792 19.2537C17.264 19.3584 17.114 19.4163 16.9583 19.4162H14.4583C14.4031 19.4162 14.3501 19.4382 14.311 19.4772C14.272 19.5163 14.25 19.5693 14.25 19.6246V23.3746C14.25 23.4896 14.3433 23.5829 14.4583 23.5829H16.9583C17.114 23.5828 17.264 23.6407 17.3792 23.7454L20.9167 26.9621V16.037Z" fill="#72777A"/>
<path d="M27.7652 15.0179C27.8823 14.9009 28.0412 14.8351 28.2068 14.8351C28.3724 14.8351 28.5313 14.9009 28.6485 15.0179C32.2285 18.5979 32.2285 24.4013 28.6485 27.9813C28.53 28.0917 28.3733 28.1518 28.2114 28.1489C28.0495 28.1461 27.895 28.0805 27.7805 27.966C27.666 27.8514 27.6004 27.697 27.5975 27.535C27.5946 27.3731 27.6548 27.2164 27.7652 27.0979C28.5004 26.3628 29.0836 25.49 29.4816 24.5294C29.8795 23.5689 30.0843 22.5393 30.0843 21.4996C30.0843 20.4599 29.8795 19.4303 29.4816 18.4697C29.0836 17.5092 28.5004 16.6364 27.7652 15.9012C27.6481 15.784 27.5824 15.6252 27.5824 15.4596C27.5824 15.2939 27.6481 15.1351 27.7652 15.0179Z" fill="#72777A"/>
<path d="M25.7024 17.9637C25.6444 17.9056 25.5755 17.8596 25.4996 17.8282C25.4238 17.7968 25.3425 17.7806 25.2604 17.7806C25.1783 17.7806 25.097 17.7968 25.0211 17.8282C24.9453 17.8596 24.8763 17.9056 24.8183 17.9637C24.7602 18.0218 24.7142 18.0907 24.6828 18.1665C24.6513 18.2424 24.6352 18.3237 24.6352 18.4058C24.6352 18.4879 24.6513 18.5692 24.6828 18.645C24.7142 18.7209 24.7602 18.7898 24.8183 18.8479C25.1665 19.1961 25.4427 19.6095 25.6312 20.0645C25.8197 20.5194 25.9166 21.0071 25.9166 21.4995C25.9166 21.992 25.8197 22.4796 25.6312 22.9346C25.4427 23.3896 25.1665 23.803 24.8183 24.1512C24.7079 24.2697 24.6478 24.4264 24.6506 24.5883C24.6535 24.7502 24.7191 24.9047 24.8336 25.0192C24.9481 25.1337 25.1026 25.1993 25.2645 25.2022C25.4264 25.2051 25.5831 25.145 25.7016 25.0346C26.6392 24.0969 27.166 22.8252 27.166 21.4991C27.166 20.1731 26.6392 18.9014 25.7016 17.9637H25.7024Z" fill="#72777A"/>
</svg>
