<svg width="36" height="35" viewBox="0 0 36 35" fill="none" xmlns="http://www.w3.org/2000/svg">
<path d="M21.6997 11.1913C22.4754 11.6851 23.1485 12.3107 23.6922 13.0348L25.3261 11.4285L25.3261 16.1034L20.5709 16.1034L22.7925 13.9193C21.6182 12.2639 19.6732 11.2371 17.5923 11.2371C14.0964 11.2371 11.2523 14.0466 11.2523 17.5C11.2523 20.9534 14.0965 23.7629 17.5923 23.7629C20.0403 23.7629 22.2264 22.4111 23.2976 20.235L24.4238 20.776C23.81 22.023 22.859 23.0775 21.6736 23.8252C20.4554 24.5938 19.0441 25 17.5923 25C13.4059 25 9.99999 21.6355 9.99999 17.5C9.99999 13.3645 13.4059 10 17.5923 10C19.055 10 20.4753 10.4119 21.6997 11.1913Z" fill="#72777A"/>
</svg>
